<svg width="100" height="100" viewBox="0 0 100 100" fill="none" xmlns="http://www.w3.org/2000/svg">
  <rect width="100" height="100" fill="#E5E7EB"/>
  <path d="M50 20C45 20 35 30 35 40C35 45 40 50 50 50C60 50 65 45 65 40C65 30 55 20 50 20Z" fill="#4ADE80"/>
  <path d="M50 45C45 45 40 55 40 65C40 75 45 80 50 80C55 80 60 75 60 65C60 55 55 45 50 45Z" fill="#4ADE80"/>
  <path d="M35 50C30 50 25 55 25 65C25 70 30 75 35 75C40 75 45 70 45 65C45 55 40 50 35 50Z" fill="#4ADE80"/>
  <path d="M65 50C60 50 55 55 55 65C55 70 60 75 65 75C70 75 75 70 75 65C75 55 70 50 65 50Z" fill="#4ADE80"/>
</svg> 